<svg id="visual" viewBox="0 0 960 540" width="960" height="540" xmlns="http://www.w3.org/2000/svg" xmlns:xlink="http://www.w3.org/1999/xlink" version="1.1"><path d="M0 390L22.8 390.7C45.7 391.3 91.3 392.7 137 381.2C182.7 369.7 228.3 345.3 274 346.8C319.7 348.3 365.3 375.7 411.2 375.5C457 375.3 503 347.7 548.8 346.5C594.7 345.3 640.3 370.7 686 382.8C731.7 395 777.3 394 823 390C868.7 386 914.3 379 937.2 375.5L960 372L960 541L937.2 541C914.3 541 868.7 541 823 541C777.3 541 731.7 541 686 541C640.3 541 594.7 541 548.8 541C503 541 457 541 411.2 541C365.3 541 319.7 541 274 541C228.3 541 182.7 541 137 541C91.3 541 45.7 541 22.8 541L0 541Z" fill="#c62368"></path><path d="M0 386L22.8 385.2C45.7 384.3 91.3 382.7 137 387.3C182.7 392 228.3 403 274 399.5C319.7 396 365.3 378 411.2 372.5C457 367 503 374 548.8 385.3C594.7 396.7 640.3 412.3 686 410.8C731.7 409.3 777.3 390.7 823 387.5C868.7 384.3 914.3 396.7 937.2 402.8L960 409L960 541L937.2 541C914.3 541 868.7 541 823 541C777.3 541 731.7 541 686 541C640.3 541 594.7 541 548.8 541C503 541 457 541 411.2 541C365.3 541 319.7 541 274 541C228.3 541 182.7 541 137 541C91.3 541 45.7 541 22.8 541L0 541Z" fill="#8d3178"></path><path d="M0 420L22.8 421.7C45.7 423.3 91.3 426.7 137 425.2C182.7 423.7 228.3 417.3 274 413.7C319.7 410 365.3 409 411.2 411.3C457 413.7 503 419.3 548.8 425.8C594.7 432.3 640.3 439.7 686 438.3C731.7 437 777.3 427 823 428.3C868.7 429.7 914.3 442.3 937.2 448.7L960 455L960 541L937.2 541C914.3 541 868.7 541 823 541C777.3 541 731.7 541 686 541C640.3 541 594.7 541 548.8 541C503 541 457 541 411.2 541C365.3 541 319.7 541 274 541C228.3 541 182.7 541 137 541C91.3 541 45.7 541 22.8 541L0 541Z" fill="#50366f"></path><path d="M0 487L22.8 478C45.7 469 91.3 451 137 449.5C182.7 448 228.3 463 274 470.3C319.7 477.7 365.3 477.3 411.2 474.5C457 471.7 503 466.3 548.8 460.3C594.7 454.3 640.3 447.7 686 446.8C731.7 446 777.3 451 823 450.2C868.7 449.3 914.3 442.7 937.2 439.3L960 436L960 541L937.2 541C914.3 541 868.7 541 823 541C777.3 541 731.7 541 686 541C640.3 541 594.7 541 548.8 541C503 541 457 541 411.2 541C365.3 541 319.7 541 274 541C228.3 541 182.7 541 137 541C91.3 541 45.7 541 22.8 541L0 541Z" fill="#202f52"></path><path d="M0 475L22.8 479.3C45.7 483.7 91.3 492.3 137 498.2C182.7 504 228.3 507 274 505.3C319.7 503.7 365.3 497.3 411.2 496.8C457 496.3 503 501.7 548.8 498.8C594.7 496 640.3 485 686 480.3C731.7 475.7 777.3 477.3 823 481.2C868.7 485 914.3 491 937.2 494L960 497L960 541L937.2 541C914.3 541 868.7 541 823 541C777.3 541 731.7 541 686 541C640.3 541 594.7 541 548.8 541C503 541 457 541 411.2 541C365.3 541 319.7 541 274 541C228.3 541 182.7 541 137 541C91.3 541 45.7 541 22.8 541L0 541Z" fill="#11202c"></path></svg>