<svg id="visual" viewBox="0 0 960 540" width="960" height="540" xmlns="http://www.w3.org/2000/svg" xmlns:xlink="http://www.w3.org/1999/xlink" version="1.1"><path d="M0 357L22.8 350C45.7 343 91.3 329 137 323.3C182.7 317.7 228.3 320.3 274 328.7C319.7 337 365.3 351 411.2 363.7C457 376.3 503 387.7 548.8 385.8C594.7 384 640.3 369 686 361.5C731.7 354 777.3 354 823 361.7C868.7 369.3 914.3 384.7 937.2 392.3L960 400L960 541L937.2 541C914.3 541 868.7 541 823 541C777.3 541 731.7 541 686 541C640.3 541 594.7 541 548.8 541C503 541 457 541 411.2 541C365.3 541 319.7 541 274 541C228.3 541 182.7 541 137 541C91.3 541 45.7 541 22.8 541L0 541Z" fill="#c62368"></path><path d="M0 371L22.8 375.3C45.7 379.7 91.3 388.3 137 387.3C182.7 386.3 228.3 375.7 274 369.8C319.7 364 365.3 363 411.2 370.3C457 377.7 503 393.3 548.8 398.3C594.7 403.3 640.3 397.7 686 394.3C731.7 391 777.3 390 823 389.5C868.7 389 914.3 389 937.2 389L960 389L960 541L937.2 541C914.3 541 868.7 541 823 541C777.3 541 731.7 541 686 541C640.3 541 594.7 541 548.8 541C503 541 457 541 411.2 541C365.3 541 319.7 541 274 541C228.3 541 182.7 541 137 541C91.3 541 45.7 541 22.8 541L0 541Z" fill="#8d3178"></path><path d="M0 399L22.8 399C45.7 399 91.3 399 137 406.8C182.7 414.7 228.3 430.3 274 431.5C319.7 432.7 365.3 419.3 411.2 417.2C457 415 503 424 548.8 426.2C594.7 428.3 640.3 423.7 686 420.5C731.7 417.3 777.3 415.7 823 412.7C868.7 409.7 914.3 405.3 937.2 403.2L960 401L960 541L937.2 541C914.3 541 868.7 541 823 541C777.3 541 731.7 541 686 541C640.3 541 594.7 541 548.8 541C503 541 457 541 411.2 541C365.3 541 319.7 541 274 541C228.3 541 182.7 541 137 541C91.3 541 45.7 541 22.8 541L0 541Z" fill="#50366f"></path><path d="M0 444L22.8 442C45.7 440 91.3 436 137 439.7C182.7 443.3 228.3 454.7 274 463.3C319.7 472 365.3 478 411.2 477C457 476 503 468 548.8 467.7C594.7 467.3 640.3 474.7 686 471.7C731.7 468.7 777.3 455.3 823 456.3C868.7 457.3 914.3 472.7 937.2 480.3L960 488L960 541L937.2 541C914.3 541 868.7 541 823 541C777.3 541 731.7 541 686 541C640.3 541 594.7 541 548.8 541C503 541 457 541 411.2 541C365.3 541 319.7 541 274 541C228.3 541 182.7 541 137 541C91.3 541 45.7 541 22.8 541L0 541Z" fill="#202f52"></path><path d="M0 509L22.8 507.7C45.7 506.3 91.3 503.7 137 502.2C182.7 500.7 228.3 500.3 274 497.8C319.7 495.3 365.3 490.7 411.2 490C457 489.3 503 492.7 548.8 493.2C594.7 493.7 640.3 491.3 686 493C731.7 494.7 777.3 500.3 823 498.2C868.7 496 914.3 486 937.2 481L960 476L960 541L937.2 541C914.3 541 868.7 541 823 541C777.3 541 731.7 541 686 541C640.3 541 594.7 541 548.8 541C503 541 457 541 411.2 541C365.3 541 319.7 541 274 541C228.3 541 182.7 541 137 541C91.3 541 45.7 541 22.8 541L0 541Z" fill="#11202c"></path></svg>