<svg id="visual" viewBox="0 0 960 540" width="960" height="540" xmlns="http://www.w3.org/2000/svg" xmlns:xlink="http://www.w3.org/1999/xlink" version="1.1"><path d="M0 365L22.8 364C45.7 363 91.3 361 137 353.8C182.7 346.7 228.3 334.3 274 339C319.7 343.7 365.3 365.3 411.2 375.8C457 386.3 503 385.7 548.8 388C594.7 390.3 640.3 395.7 686 394.2C731.7 392.7 777.3 384.3 823 383.2C868.7 382 914.3 388 937.2 391L960 394L960 541L937.2 541C914.3 541 868.7 541 823 541C777.3 541 731.7 541 686 541C640.3 541 594.7 541 548.8 541C503 541 457 541 411.2 541C365.3 541 319.7 541 274 541C228.3 541 182.7 541 137 541C91.3 541 45.7 541 22.8 541L0 541Z" fill="#11202c"></path><path d="M0 427L22.8 423.2C45.7 419.3 91.3 411.7 137 409.2C182.7 406.7 228.3 409.3 274 406.3C319.7 403.3 365.3 394.7 411.2 387.5C457 380.3 503 374.7 548.8 376C594.7 377.3 640.3 385.7 686 387.5C731.7 389.3 777.3 384.7 823 381.7C868.7 378.7 914.3 377.3 937.2 376.7L960 376L960 541L937.2 541C914.3 541 868.7 541 823 541C777.3 541 731.7 541 686 541C640.3 541 594.7 541 548.8 541C503 541 457 541 411.2 541C365.3 541 319.7 541 274 541C228.3 541 182.7 541 137 541C91.3 541 45.7 541 22.8 541L0 541Z" fill="#202f52"></path><path d="M0 454L22.8 444.7C45.7 435.3 91.3 416.7 137 410C182.7 403.3 228.3 408.7 274 415C319.7 421.3 365.3 428.7 411.2 426.3C457 424 503 412 548.8 412.5C594.7 413 640.3 426 686 426.5C731.7 427 777.3 415 823 413.3C868.7 411.7 914.3 420.3 937.2 424.7L960 429L960 541L937.2 541C914.3 541 868.7 541 823 541C777.3 541 731.7 541 686 541C640.3 541 594.7 541 548.8 541C503 541 457 541 411.2 541C365.3 541 319.7 541 274 541C228.3 541 182.7 541 137 541C91.3 541 45.7 541 22.8 541L0 541Z" fill="#50366f"></path><path d="M0 445L22.8 447.3C45.7 449.7 91.3 454.3 137 455.7C182.7 457 228.3 455 274 453.3C319.7 451.7 365.3 450.3 411.2 452.7C457 455 503 461 548.8 458.3C594.7 455.7 640.3 444.3 686 446C731.7 447.7 777.3 462.3 823 468.5C868.7 474.7 914.3 472.3 937.2 471.2L960 470L960 541L937.2 541C914.3 541 868.7 541 823 541C777.3 541 731.7 541 686 541C640.3 541 594.7 541 548.8 541C503 541 457 541 411.2 541C365.3 541 319.7 541 274 541C228.3 541 182.7 541 137 541C91.3 541 45.7 541 22.8 541L0 541Z" fill="#8d3178"></path><path d="M0 499L22.8 499C45.7 499 91.3 499 137 498.3C182.7 497.7 228.3 496.3 274 493.5C319.7 490.7 365.3 486.3 411.2 485.5C457 484.7 503 487.3 548.8 490.5C594.7 493.7 640.3 497.3 686 496.8C731.7 496.3 777.3 491.7 823 491.5C868.7 491.3 914.3 495.7 937.2 497.8L960 500L960 541L937.2 541C914.3 541 868.7 541 823 541C777.3 541 731.7 541 686 541C640.3 541 594.7 541 548.8 541C503 541 457 541 411.2 541C365.3 541 319.7 541 274 541C228.3 541 182.7 541 137 541C91.3 541 45.7 541 22.8 541L0 541Z" fill="#c62368"></path></svg>